<mxfile host="app.diagrams.net" modified="2024-06-05T19:43:48.015Z" agent="Mozilla/5.0 (Windows NT 10.0; Win64; x64) AppleWebKit/537.36 (KHTML, like Gecko) Chrome/125.0.0.0 Safari/537.36" etag="-A1Rt3xO5RQuh1JBk7Ua" version="24.4.13" type="github">
  <diagram name="Page-1" id="wOEFBbjBMZobuI-oR-Bh">
    <mxGraphModel dx="2049" dy="1114" grid="1" gridSize="10" guides="1" tooltips="1" connect="1" arrows="1" fold="1" page="1" pageScale="1" pageWidth="850" pageHeight="1100" math="0" shadow="0">
      <root>
        <mxCell id="0" />
        <mxCell id="1" parent="0" />
        <mxCell id="tjqFa9H2qDfTikG5movL-2" value="" style="html=1;outlineConnect=0;fillColor=#CCCCCC;strokeColor=#6881B3;gradientColor=none;gradientDirection=north;strokeWidth=2;shape=mxgraph.networks.cloud;fontColor=#ffffff;" parent="1" vertex="1">
          <mxGeometry x="780" y="140" width="140" height="80" as="geometry" />
        </mxCell>
        <mxCell id="tjqFa9H2qDfTikG5movL-4" value="" style="endArrow=none;dashed=1;html=1;rounded=0;entryX=0.06;entryY=0.5;entryDx=0;entryDy=0;entryPerimeter=0;exitX=0.7;exitY=0.42;exitDx=0;exitDy=0;exitPerimeter=0;" parent="1" source="tjqFa9H2qDfTikG5movL-12" target="tjqFa9H2qDfTikG5movL-2" edge="1">
          <mxGeometry width="50" height="50" relative="1" as="geometry">
            <mxPoint x="690" y="90" as="sourcePoint" />
            <mxPoint x="770" y="180" as="targetPoint" />
          </mxGeometry>
        </mxCell>
        <mxCell id="tjqFa9H2qDfTikG5movL-6" value="" style="ellipse;whiteSpace=wrap;html=1;aspect=fixed;fillColor=#dae8fc;strokeColor=#6c8ebf;" parent="1" vertex="1">
          <mxGeometry x="390" y="230" width="230" height="230" as="geometry" />
        </mxCell>
        <mxCell id="tjqFa9H2qDfTikG5movL-7" value="SUTRON" style="rounded=0;whiteSpace=wrap;html=1;strokeColor=none;fillColor=none;strokeWidth=2;fontSize=16;" parent="1" vertex="1">
          <mxGeometry x="815" y="175" width="70" height="30" as="geometry" />
        </mxCell>
        <mxCell id="tjqFa9H2qDfTikG5movL-9" value="" style="html=1;outlineConnect=0;fillColor=#CCCCCC;strokeColor=#6881B3;gradientColor=none;gradientDirection=north;strokeWidth=2;shape=mxgraph.networks.cloud;fontColor=#ffffff;" parent="1" vertex="1">
          <mxGeometry x="1010" y="170" width="140" height="80" as="geometry" />
        </mxCell>
        <mxCell id="tjqFa9H2qDfTikG5movL-11" value="INTERNET" style="rounded=0;whiteSpace=wrap;html=1;strokeColor=none;fillColor=none;strokeWidth=2;fontSize=16;" parent="1" vertex="1">
          <mxGeometry x="1045" y="200" width="70" height="30" as="geometry" />
        </mxCell>
        <mxCell id="tjqFa9H2qDfTikG5movL-12" value="" style="fontColor=#0066CC;verticalAlign=top;verticalLabelPosition=bottom;labelPosition=center;align=center;html=1;outlineConnect=0;fillColor=#CCCCCC;strokeColor=#6881B3;gradientColor=none;gradientDirection=north;strokeWidth=2;shape=mxgraph.networks.satellite;" parent="1" vertex="1">
          <mxGeometry x="580" y="50" width="100" height="100" as="geometry" />
        </mxCell>
        <mxCell id="tjqFa9H2qDfTikG5movL-15" value="" style="endArrow=none;dashed=1;html=1;dashPattern=1 3;strokeWidth=2;rounded=0;entryX=0.5;entryY=0.08;entryDx=0;entryDy=0;entryPerimeter=0;exitX=1.036;exitY=0.75;exitDx=0;exitDy=0;exitPerimeter=0;" parent="1" source="tjqFa9H2qDfTikG5movL-2" target="tjqFa9H2qDfTikG5movL-9" edge="1">
          <mxGeometry width="50" height="50" relative="1" as="geometry">
            <mxPoint x="1020" y="160" as="sourcePoint" />
            <mxPoint x="1070" y="110" as="targetPoint" />
          </mxGeometry>
        </mxCell>
        <mxCell id="tjqFa9H2qDfTikG5movL-16" value="" style="endArrow=none;dashed=1;html=1;dashPattern=1 3;strokeWidth=2;rounded=0;exitX=0.5;exitY=0;exitDx=0;exitDy=0;exitPerimeter=0;" parent="1" source="tjqFa9H2qDfTikG5movL-13" target="tjqFa9H2qDfTikG5movL-9" edge="1">
          <mxGeometry width="50" height="50" relative="1" as="geometry">
            <mxPoint x="1060" y="310" as="sourcePoint" />
            <mxPoint x="1080" y="260" as="targetPoint" />
          </mxGeometry>
        </mxCell>
        <mxCell id="tjqFa9H2qDfTikG5movL-17" value="" style="whiteSpace=wrap;html=1;aspect=fixed;" parent="1" vertex="1">
          <mxGeometry x="760" y="340" width="500" height="500" as="geometry" />
        </mxCell>
        <mxCell id="tjqFa9H2qDfTikG5movL-13" value="" style="fontColor=#0066CC;verticalAlign=top;verticalLabelPosition=bottom;labelPosition=center;align=center;html=1;outlineConnect=0;fillColor=#CCCCCC;strokeColor=#6881B3;gradientColor=none;gradientDirection=north;strokeWidth=2;shape=mxgraph.networks.router;" parent="1" vertex="1">
          <mxGeometry x="900" y="330" width="100" height="30" as="geometry" />
        </mxCell>
        <mxCell id="tjqFa9H2qDfTikG5movL-25" style="edgeStyle=orthogonalEdgeStyle;rounded=0;orthogonalLoop=1;jettySize=auto;html=1;exitX=0.1;exitY=1;exitDx=0;exitDy=0;exitPerimeter=0;" parent="1" source="tjqFa9H2qDfTikG5movL-18" target="tjqFa9H2qDfTikG5movL-21" edge="1">
          <mxGeometry relative="1" as="geometry" />
        </mxCell>
        <mxCell id="tjqFa9H2qDfTikG5movL-27" style="edgeStyle=orthogonalEdgeStyle;rounded=0;orthogonalLoop=1;jettySize=auto;html=1;exitX=1;exitY=0.5;exitDx=0;exitDy=0;exitPerimeter=0;" parent="1" source="tjqFa9H2qDfTikG5movL-18" target="tjqFa9H2qDfTikG5movL-22" edge="1">
          <mxGeometry relative="1" as="geometry" />
        </mxCell>
        <mxCell id="tjqFa9H2qDfTikG5movL-18" value="" style="fontColor=#0066CC;verticalAlign=top;verticalLabelPosition=bottom;labelPosition=center;align=center;html=1;outlineConnect=0;fillColor=#CCCCCC;strokeColor=#6881B3;gradientColor=none;gradientDirection=north;strokeWidth=2;shape=mxgraph.networks.switch;" parent="1" vertex="1">
          <mxGeometry x="980" y="535" width="100" height="30" as="geometry" />
        </mxCell>
        <mxCell id="tjqFa9H2qDfTikG5movL-20" value="" style="fontColor=#0066CC;verticalAlign=top;verticalLabelPosition=bottom;labelPosition=center;align=center;html=1;outlineConnect=0;fillColor=#CCCCCC;strokeColor=#6881B3;gradientColor=none;gradientDirection=north;strokeWidth=2;shape=mxgraph.networks.pc;" parent="1" vertex="1">
          <mxGeometry x="810" y="630" width="100" height="70" as="geometry" />
        </mxCell>
        <mxCell id="tjqFa9H2qDfTikG5movL-21" value="" style="fontColor=#0066CC;verticalAlign=top;verticalLabelPosition=bottom;labelPosition=center;align=center;html=1;outlineConnect=0;fillColor=#CCCCCC;strokeColor=#6881B3;gradientColor=none;gradientDirection=north;strokeWidth=2;shape=mxgraph.networks.pc;" parent="1" vertex="1">
          <mxGeometry x="895" y="740" width="100" height="70" as="geometry" />
        </mxCell>
        <mxCell id="tjqFa9H2qDfTikG5movL-22" value="" style="fontColor=#0066CC;verticalAlign=top;verticalLabelPosition=bottom;labelPosition=center;align=center;html=1;outlineConnect=0;fillColor=#CCCCCC;strokeColor=#6881B3;gradientColor=none;gradientDirection=north;strokeWidth=2;shape=mxgraph.networks.pc;" parent="1" vertex="1">
          <mxGeometry x="1110" y="630" width="100" height="70" as="geometry" />
        </mxCell>
        <mxCell id="tjqFa9H2qDfTikG5movL-23" value="" style="fontColor=#0066CC;verticalAlign=top;verticalLabelPosition=bottom;labelPosition=center;align=center;html=1;outlineConnect=0;fillColor=#CCCCCC;strokeColor=#6881B3;gradientColor=none;gradientDirection=north;strokeWidth=2;shape=mxgraph.networks.pc;" parent="1" vertex="1">
          <mxGeometry x="1045" y="740" width="100" height="70" as="geometry" />
        </mxCell>
        <mxCell id="tjqFa9H2qDfTikG5movL-24" style="edgeStyle=orthogonalEdgeStyle;rounded=0;orthogonalLoop=1;jettySize=auto;html=1;exitX=0;exitY=0.5;exitDx=0;exitDy=0;exitPerimeter=0;entryX=0.5;entryY=0.07;entryDx=0;entryDy=0;entryPerimeter=0;" parent="1" source="tjqFa9H2qDfTikG5movL-18" target="tjqFa9H2qDfTikG5movL-20" edge="1">
          <mxGeometry relative="1" as="geometry" />
        </mxCell>
        <mxCell id="tjqFa9H2qDfTikG5movL-26" style="edgeStyle=orthogonalEdgeStyle;rounded=0;orthogonalLoop=1;jettySize=auto;html=1;exitX=0.9;exitY=1;exitDx=0;exitDy=0;exitPerimeter=0;entryX=0;entryY=0;entryDx=0;entryDy=0;entryPerimeter=0;" parent="1" source="tjqFa9H2qDfTikG5movL-18" target="tjqFa9H2qDfTikG5movL-23" edge="1">
          <mxGeometry relative="1" as="geometry" />
        </mxCell>
        <mxCell id="tjqFa9H2qDfTikG5movL-30" value="" style="fontColor=#0066CC;verticalAlign=top;verticalLabelPosition=bottom;labelPosition=center;align=center;html=1;outlineConnect=0;fillColor=#CCCCCC;strokeColor=#6881B3;gradientColor=none;gradientDirection=north;strokeWidth=2;shape=mxgraph.networks.laptop;" parent="1" vertex="1">
          <mxGeometry x="400" y="300" width="100" height="60" as="geometry" />
        </mxCell>
        <mxCell id="tjqFa9H2qDfTikG5movL-31" value="" style="endArrow=none;dashed=1;html=1;dashPattern=1 3;strokeWidth=2;rounded=0;exitX=0.5;exitY=0;exitDx=0;exitDy=0;exitPerimeter=0;" parent="1" source="tjqFa9H2qDfTikG5movL-30" target="tjqFa9H2qDfTikG5movL-12" edge="1">
          <mxGeometry width="50" height="50" relative="1" as="geometry">
            <mxPoint x="490" y="200" as="sourcePoint" />
            <mxPoint x="540" y="150" as="targetPoint" />
          </mxGeometry>
        </mxCell>
        <mxCell id="tjqFa9H2qDfTikG5movL-32" value="" style="endArrow=none;dashed=1;html=1;dashPattern=1 3;strokeWidth=2;rounded=0;exitX=0.5;exitY=0;exitDx=0;exitDy=0;exitPerimeter=0;entryX=0.4;entryY=0.85;entryDx=0;entryDy=0;entryPerimeter=0;" parent="1" source="tjqFa9H2qDfTikG5movL-40" target="tjqFa9H2qDfTikG5movL-12" edge="1">
          <mxGeometry width="50" height="50" relative="1" as="geometry">
            <mxPoint x="560" y="300" as="sourcePoint" />
            <mxPoint x="550" y="160" as="targetPoint" />
          </mxGeometry>
        </mxCell>
        <mxCell id="tjqFa9H2qDfTikG5movL-35" value="ESCRITÃ“RIO PHOENIX" style="rounded=0;whiteSpace=wrap;html=1;strokeColor=none;fillColor=none;strokeWidth=2;fontSize=16;fontStyle=1" parent="1" vertex="1">
          <mxGeometry x="780" y="350" width="70" height="30" as="geometry" />
        </mxCell>
        <mxCell id="tjqFa9H2qDfTikG5movL-36" value="OCEANO" style="rounded=0;whiteSpace=wrap;html=1;strokeColor=none;fillColor=none;strokeWidth=2;fontSize=16;fontStyle=1" parent="1" vertex="1">
          <mxGeometry x="470" y="420" width="70" height="30" as="geometry" />
        </mxCell>
        <mxCell id="tjqFa9H2qDfTikG5movL-38" value="OTT PLS 500" style="rounded=0;whiteSpace=wrap;html=1;strokeColor=none;fillColor=none;strokeWidth=2;fontSize=16;" parent="1" vertex="1">
          <mxGeometry x="417.5" y="310" width="65" height="20" as="geometry" />
        </mxCell>
        <mxCell id="tjqFa9H2qDfTikG5movL-40" value="" style="fontColor=#0066CC;verticalAlign=top;verticalLabelPosition=bottom;labelPosition=center;align=center;html=1;outlineConnect=0;fillColor=#CCCCCC;strokeColor=#6881B3;gradientColor=none;gradientDirection=north;strokeWidth=2;shape=mxgraph.networks.laptop;" parent="1" vertex="1">
          <mxGeometry x="510" y="300" width="100" height="60" as="geometry" />
        </mxCell>
        <mxCell id="tjqFa9H2qDfTikG5movL-41" value="OTT PLS 500" style="rounded=0;whiteSpace=wrap;html=1;strokeColor=none;fillColor=none;strokeWidth=2;fontSize=16;" parent="1" vertex="1">
          <mxGeometry x="527.5" y="310" width="65" height="20" as="geometry" />
        </mxCell>
        <mxCell id="tjqFa9H2qDfTikG5movL-42" value="" style="fontColor=#0066CC;verticalAlign=top;verticalLabelPosition=bottom;labelPosition=center;align=center;html=1;outlineConnect=0;fillColor=#CCCCCC;strokeColor=#6881B3;gradientColor=none;gradientDirection=north;strokeWidth=2;shape=mxgraph.networks.router;" parent="1" vertex="1">
          <mxGeometry x="1060" y="330" width="100" height="30" as="geometry" />
        </mxCell>
        <mxCell id="tjqFa9H2qDfTikG5movL-44" value="" style="endArrow=none;dashed=1;html=1;dashPattern=1 3;strokeWidth=2;rounded=0;entryX=0.5;entryY=1;entryDx=0;entryDy=0;entryPerimeter=0;" parent="1" source="tjqFa9H2qDfTikG5movL-42" target="tjqFa9H2qDfTikG5movL-9" edge="1">
          <mxGeometry width="50" height="50" relative="1" as="geometry">
            <mxPoint x="930" y="340" as="sourcePoint" />
            <mxPoint x="1037" y="260" as="targetPoint" />
            <Array as="points" />
          </mxGeometry>
        </mxCell>
        <mxCell id="tjqFa9H2qDfTikG5movL-45" value="" style="fontColor=#0066CC;verticalAlign=top;verticalLabelPosition=bottom;labelPosition=center;align=center;html=1;outlineConnect=0;fillColor=#CCCCCC;strokeColor=#6881B3;gradientColor=none;gradientDirection=north;strokeWidth=2;shape=mxgraph.networks.router;" parent="1" vertex="1">
          <mxGeometry x="895" y="430" width="100" height="30" as="geometry" />
        </mxCell>
        <mxCell id="tjqFa9H2qDfTikG5movL-46" value="" style="fontColor=#0066CC;verticalAlign=top;verticalLabelPosition=bottom;labelPosition=center;align=center;html=1;outlineConnect=0;fillColor=#CCCCCC;strokeColor=#6881B3;gradientColor=none;gradientDirection=north;strokeWidth=2;shape=mxgraph.networks.router;" parent="1" vertex="1">
          <mxGeometry x="1065" y="430" width="100" height="30" as="geometry" />
        </mxCell>
        <mxCell id="tjqFa9H2qDfTikG5movL-47" style="edgeStyle=orthogonalEdgeStyle;rounded=0;orthogonalLoop=1;jettySize=auto;html=1;exitX=0.9;exitY=1;exitDx=0;exitDy=0;exitPerimeter=0;entryX=0.05;entryY=0.05;entryDx=0;entryDy=0;entryPerimeter=0;" parent="1" source="tjqFa9H2qDfTikG5movL-13" target="tjqFa9H2qDfTikG5movL-46" edge="1">
          <mxGeometry relative="1" as="geometry" />
        </mxCell>
        <mxCell id="tjqFa9H2qDfTikG5movL-49" style="edgeStyle=orthogonalEdgeStyle;rounded=0;orthogonalLoop=1;jettySize=auto;html=1;exitX=0.1;exitY=1;exitDx=0;exitDy=0;exitPerimeter=0;entryX=0.95;entryY=0.05;entryDx=0;entryDy=0;entryPerimeter=0;" parent="1" source="tjqFa9H2qDfTikG5movL-42" target="tjqFa9H2qDfTikG5movL-45" edge="1">
          <mxGeometry relative="1" as="geometry" />
        </mxCell>
        <mxCell id="tjqFa9H2qDfTikG5movL-50" style="edgeStyle=orthogonalEdgeStyle;rounded=0;orthogonalLoop=1;jettySize=auto;html=1;exitX=0.5;exitY=1;exitDx=0;exitDy=0;exitPerimeter=0;entryX=0.5;entryY=0;entryDx=0;entryDy=0;entryPerimeter=0;" parent="1" source="tjqFa9H2qDfTikG5movL-42" target="tjqFa9H2qDfTikG5movL-46" edge="1">
          <mxGeometry relative="1" as="geometry" />
        </mxCell>
        <mxCell id="tjqFa9H2qDfTikG5movL-51" style="edgeStyle=orthogonalEdgeStyle;rounded=0;orthogonalLoop=1;jettySize=auto;html=1;exitX=0.5;exitY=1;exitDx=0;exitDy=0;exitPerimeter=0;entryX=0.5;entryY=0;entryDx=0;entryDy=0;entryPerimeter=0;" parent="1" source="tjqFa9H2qDfTikG5movL-13" target="tjqFa9H2qDfTikG5movL-45" edge="1">
          <mxGeometry relative="1" as="geometry" />
        </mxCell>
        <mxCell id="tjqFa9H2qDfTikG5movL-52" style="edgeStyle=orthogonalEdgeStyle;rounded=0;orthogonalLoop=1;jettySize=auto;html=1;exitX=0.9;exitY=1;exitDx=0;exitDy=0;exitPerimeter=0;entryX=0.05;entryY=0.05;entryDx=0;entryDy=0;entryPerimeter=0;" parent="1" source="tjqFa9H2qDfTikG5movL-45" target="tjqFa9H2qDfTikG5movL-18" edge="1">
          <mxGeometry relative="1" as="geometry" />
        </mxCell>
        <mxCell id="tjqFa9H2qDfTikG5movL-53" style="edgeStyle=orthogonalEdgeStyle;rounded=0;orthogonalLoop=1;jettySize=auto;html=1;exitX=0.1;exitY=1;exitDx=0;exitDy=0;exitPerimeter=0;entryX=0.95;entryY=0.05;entryDx=0;entryDy=0;entryPerimeter=0;" parent="1" source="tjqFa9H2qDfTikG5movL-46" target="tjqFa9H2qDfTikG5movL-18" edge="1">
          <mxGeometry relative="1" as="geometry" />
        </mxCell>
      </root>
    </mxGraphModel>
  </diagram>
</mxfile>
